# xmcd
#
# Track frame offsets: 
#        150
#        17986
#        41049
#        69787
#        96644
#        116456
#        136070
#        154764
#        174301
#        191708
#        209207
#        243272
#        261490
#
# Disc length: 3832 seconds
#
# Revision: 0
# Processed by: cddbd v1.5.2PL0 Copyright (c) Steve Scherf et al.
# Submitted via: ExactAudioCopy v1.0b1
#
DISCID=bd0ef60d
DTITLE=The Sonny Moorman Group - Lucky 13
DYEAR=2014
DGENRE=Blues
TTITLE0=Ol' Gunslinger
TTITLE1=Deal With The Devil
TTITLE2=You Quit On Me, Baby
TTITLE3=GO updated
TTITLE4=Macon
TTITLE5=Winter
TTITLE6=I Am
TTITLE7=Half The Money
TTITLE8=Tore Up
TTITLE9=Cherokee Rose
TTITLE10=Tell Mama
TTITLE11=Take The Motorway
TTITLE12=Statesboro Blues
EXTD=
EXTT0=
EXTT1=
EXTT2=
EXTT3=
EXTT4=
EXTT5=
EXTT6=
EXTT7=
EXTT8=
EXTT9=
EXTT10=
EXTT11=
EXTT12=
PLAYORDER=
